<svg width="333" height="334" viewBox="0 0 333 334" fill="none" xmlns="http://www.w3.org/2000/svg">
<path d="M166.246 0.0821533C258.057 0.0821533 332.493 74.4941 332.493 166.305C332.493 258.117 258.07 332.529 166.246 332.529C74.4223 332.529 0 258.09 0 166.292C0 74.4942 74.4355 0.0821533 166.246 0.0821533Z" fill="#526CF4"/>
<path d="M166.009 46.9376C232.08 46.9376 285.644 100.494 285.644 166.556C285.644 232.618 232.08 286.175 166.009 286.175C99.938 286.175 46.374 232.618 46.374 166.556C46.374 100.494 99.938 46.9376 166.009 46.9376Z" fill="#E3E3E3"/>
<path fill-rule="evenodd" clip-rule="evenodd" d="M166.009 46.9376C99.938 46.9376 46.374 100.494 46.374 166.556C46.374 168.456 46.4136 170.342 46.506 172.228C49.4612 108.805 101.838 58.2821 166.009 58.2821C230.18 58.2821 282.544 108.792 285.512 172.228C285.605 170.355 285.644 168.456 285.644 166.556C285.631 100.494 232.08 46.9376 166.009 46.9376Z" fill="#C1C1C1"/>
<path fill-rule="evenodd" clip-rule="evenodd" d="M0.0791586 162.348C0.0263862 164.063 0 165.791 0 167.532C0 259.33 74.4223 333.755 166.246 333.755C258.057 333.755 332.493 259.343 332.493 167.532C332.493 165.804 332.466 164.076 332.413 162.348C329.682 251.745 256.329 323.387 166.246 323.387C76.1638 323.387 2.82332 251.758 0.0791586 162.348Z" fill="#2846C1"/>
</svg>
