<?xml version="1.0" encoding="utf-8"?>
<!-- Generator: Adobe Illustrator 26.5.0, SVG Export Plug-In . SVG Version: 6.00 Build 0)  -->
<svg version="1.1" id="Camada_1" xmlns="http://www.w3.org/2000/svg" xmlns:xlink="http://www.w3.org/1999/xlink" x="0px" y="0px"
	 viewBox="0 0 602 537" style="enable-background:new 0 0 602 537;" xml:space="preserve">
<style type="text/css">
	.st0{fill:none;stroke:#000000;stroke-width:25;stroke-opacity:0.24;}
	.st1{fill:#DC3A57;}
	.st2{fill:#E3E3E3;}
	.st3{fill:#3B4262;}
	.st4{fill-rule:evenodd;clip-rule:evenodd;fill:#C1C1C1;}
	.st5{fill-rule:evenodd;clip-rule:evenodd;fill:#AF314C;}
	.st6{fill:#526CF4;}
	.st7{fill-rule:evenodd;clip-rule:evenodd;fill:#2846C1;}
	.st8{fill:#E7A51A;}
	.st9{fill-rule:evenodd;clip-rule:evenodd;fill:#CA6918;}
</style>
<path class="st0" d="M291.1,422.8l164.9-292H126.1L291.1,422.8z"/>
<g>
	<path  class="st1" d="M300,283.8c69.6,0,126,56.4,126,126s-56.4,126-126,126s-126-56.4-126-126S230.4,283.8,300,283.8z"/>
	<path class="st2" d="M299.7,319c50.1,0,90.7,40.6,90.7,90.7s-40.6,90.7-90.7,90.7S209,459.8,209,409.7S249.6,319,299.7,319z"/>
	<path class="st3" d="M335.7,391.4c-1.1-13.5-16.2-12.1-16.2-12.1c-6.4-11.3-16.4-3.1-16.4-3.1c-7.7-11.1-17.3-0.8-17.3-0.8
		c-16.6-1.8-16,11.8-16,11.8c-0.4,4.3,2.3,17.7,2.3,17.7c-2.5-7.7-7.8-1.3-7.8-1.3c-6.6,10.1-1.6,15.7-1.6,15.7
		c8.9,10.4,27.8,22.9,27.8,22.9c6.9,3.9,4,7.4,4,7.4l41.5-6.9l1-7.9C343.3,415.7,335.7,391.4,335.7,391.4z"/>
	<path class="st4" d="M299.9,319.3c-50.1,0-90.7,40.6-90.7,90.7c0,1.4,0,2.9,0.1,4.3c2.2-48.1,41.9-86.4,90.6-86.4
		s88.3,38.3,90.6,86.4c0.1-1.4,0.1-2.9,0.1-4.3C390.5,359.9,349.9,319.3,299.9,319.3z"/>
	<path class="st5" d="M174.1,406.8c0,1.3-0.1,2.6-0.1,3.9c0,69.6,56.4,126,126,126c69.6,0,126-56.4,126-126c0-1.3,0-2.6-0.1-3.9
		c-2.1,67.8-57.7,122.1-125.9,122.1S176.2,474.5,174.1,406.8z"/>
</g>
<g>
	<path class="st6" d="M126.8,1.1c69.6,0,126,56.4,126,126s-56.4,126-126,126s-126-56.4-126-126S57.2,1.1,126.8,1.1z"/>
	<path class="st2" d="M126.7,36.6c50.1,0,90.7,40.6,90.7,90.7S176.8,218,126.7,218S36,177.4,36,127.3S76.6,36.6,126.7,36.6z"/>
	<path class="st3" d=/>
	<path class="st4" d="M126.7,36.6C76.6,36.6,36,77.2,36,127.3c0,1.4,0,2.9,0.1,4.3c2.2-48.1,41.9-86.4,90.6-86.4
		s88.3,38.3,90.6,86.4c0.1-1.4,0.1-2.9,0.1-4.3C217.3,77.2,176.7,36.6,126.7,36.6z"/>
	<path class="st7" d="M0.9,124.1c0,1.3-0.1,2.6-0.1,3.9c0,69.6,56.4,126,126,126c69.6,0,126-56.4,126-126c0-1.3,0-2.6-0.1-3.9
		c-2.1,67.8-57.7,122.1-125.9,122.1S3,191.9,0.9,124.1z"/>
</g>
<g>
	<path class="st8" d="M475.2,0.4c69.6,0,126,56.4,126,126s-56.4,126-126,126s-126-56.4-126-126S405.6,0.4,475.2,0.4z"/>
	<path class="st2" d="M474.7,36c50.1,0,90.7,40.6,90.7,90.7s-40.6,90.7-90.7,90.7S384,176.8,384,126.7S424.6,36,474.7,36z"/>
	<path class="st3" d="M458.1,138.5l-4.4-17.4c-3.4,2.8-8.6,8.8-7.9,18c1.2,14.5,15.3,31.9,18.8,36l36.7-3.1
		c2.7-3.9,14.1-21.5,11.9-49.8c-0.2-0.4,0.2-6.5-5.4-6c-2.7,0.2-4.7,2.7-4.5,5.4c0.1,1.4-0.9,2.6-2.2,2.7c-1.4,0.1-2.5-0.9-2.6-2.3
		l-0.8-10c-0.4-5.1-7.2-6.4-9.4-1.6l0,7.6c0,1.4-1.1,2.5-2.5,2.5c-1.4,0-2.4-1.1-2.5-2.5c-0.4-26.9-0.7-23.3-1.5-41.1
		c0.1-6.3-9.3-6.3-9.3,0l1.1,42.4c0,1.2-0.9,2.3-2.1,2.4c-1.4,0.2-2.4-0.6-2.7-1.8l-11.7-38.8c-1.2-5.3-9-3.5-7.9,1.9l13.5,54.1
		c0.4,1.3-0.5,2.7-1.8,3c-0.3,0.1-0.6,0.1-0.9,0.1c-0.3,0-0.6-0.2-0.9-0.3c-0.3-0.2-0.5-0.4-0.7-0.6
		C458.3,139.1,458.2,138.8,458.1,138.5L458.1,138.5z"/>
	<path class="st4" d="M475,35.9c-50.1,0-90.7,40.6-90.7,90.7c0,1.4,0,2.9,0.1,4.3c2.2-48.1,41.9-86.4,90.6-86.4s88.3,38.3,90.6,86.4
		c0.1-1.4,0.1-2.9,0.1-4.3C565.7,76.5,525.1,35.9,475,35.9z"/>
	<path class="st9" d="M349.3,123.4c0,1.3-0.1,2.6-0.1,3.9c0,69.6,56.4,126,126,126c69.6,0,126-56.4,126-126c0-1.3,0-2.6-0.1-3.9
		c-2.1,67.8-57.7,122.1-125.9,122.1S351.3,191.2,349.3,123.4z"/>
</g>
</svg>
