<svg width="362" height="437" viewBox="0 0 362 437" fill="none" xmlns="http://www.w3.org/2000/svg">
<path d="M349.326 88.4283C346.386 87.2778 343.231 86.7731 340.077 86.9485C335.798 87.2475 332.352 88.9739 330.303 91.8064C318.261 108.607 308.389 140.333 300.431 165.833C296.782 177.619 291.873 193.396 288.329 200.885C284.628 179.906 288.81 103.054 290.431 73.4586L290.454 72.9803C291.58 52.4202 291.73 48.8104 291.49 47.226C289.703 35.9482 285.161 28.5418 277.984 25.231C270.732 21.8679 261.318 23.3626 251.168 29.4387C246.085 32.5029 244.674 43.0109 240.312 90.648L240.297 90.8573C237.895 117.03 232.354 177.298 225.545 187.342C217.865 173.292 207.295 93.5104 202.73 58.9746C199.54 34.7898 197.678 20.9038 196.424 16.711C193.797 7.92201 182.686 0.448344 171.688 0.0298189C162.529 -0.418601 155.021 4.21507 151.433 12.2717C144.721 19.708 147.093 44.3486 154.511 102.718C158.039 130.505 165.321 187.88 160.742 194.323C151.59 193.329 135.893 157.388 114.084 87.4567C107.958 67.8757 106.066 61.9865 104.189 59.4081C100.48 50.4247 87.883 43.4967 76.592 44.2814C75.6421 44.3472 74.697 44.4695 73.7617 44.6476C67.8534 45.8135 54.3628 51.2319 57.2456 76.2313C65.2034 110.887 73.8593 136.327 82.2525 161.027L82.4252 161.521C87.4476 176.319 92.1998 190.294 96.6141 205.802C107.012 242.423 102.965 265.143 102.92 265.405C102.575 267.736 101.847 269.164 100.758 269.665C100.295 269.864 99.7986 269.978 99.2942 270.001C95.991 270.225 91.0511 268.058 88.5062 266.638C82.6805 255.562 53.7021 202.783 27.4414 195.459L26.4955 195.182L25.5421 195.272C15.9101 196.176 8.83071 199.801 4.49897 206.041C-2.36274 215.907 0.482543 228.477 1.16571 231.003L1.55609 231.9C1.7663 232.281 22.8319 270.502 26.0901 288.282C28.8978 303.528 43.4396 320.045 55.136 333.318L55.6165 333.863C59.4302 338.198 62.7184 341.957 65.316 345.433C99.2417 380.656 152.889 410.282 153.325 410.528C160.021 415.438 163.737 420.192 164.135 424.28C164.318 425.825 163.887 427.381 162.934 428.615L161.77 429.825L169.188 437L310.724 427.105L316.759 399.572C335.423 321.831 331.526 255.539 331.459 255.106C331.534 252.662 336.759 229.075 340.963 210.017L341.091 209.532C349.476 171.565 359.897 124.332 361.901 106.373C362.772 98.6897 357.832 91.6345 349.326 88.4283Z" fill="#3B4262"/>
</svg>
