<svg width="333" height="334" viewBox="0 0 333 334" fill="none" xmlns="http://www.w3.org/2000/svg">
<path d="M166.5 0C258.451 0 333 74.5358 333 166.5C333 258.464 258.464 333 166.5 333C74.5359 333 0 258.464 0 166.5C0 74.5358 74.5491 0 166.5 0Z" fill="#DC3A57"/>
<path d="M166.5 47C232.496 47 286 100.504 286 166.5C286 232.496 232.496 286 166.5 286C100.504 286 47 232.496 47 166.5C47 100.504 100.504 47 166.5 47Z" fill="#E3E3E3"/>
<path fill-rule="evenodd" clip-rule="evenodd" d="M166.5 47C100.504 47 47 100.432 47 166.341C47 168.236 47.0395 170.118 47.1318 172C50.0837 108.724 102.401 58.3182 166.5 58.3182C230.599 58.3182 282.903 108.71 285.868 172C285.96 170.131 286 168.236 286 166.341C286 100.432 232.496 47 166.5 47Z" fill="#C1C1C1"/>
<path fill-rule="evenodd" clip-rule="evenodd" d="M0.0792762 163C0.0264233 164.711 0 166.435 0 168.172C0 259.752 74.5359 334 166.5 334C258.451 334 333 259.765 333 168.172C333 166.448 332.974 164.724 332.921 163C330.186 252.185 256.72 323.656 166.5 323.656C76.28 323.656 2.81442 252.198 0.0792762 163Z" fill="#AF314C"/>
</svg>
