<svg width="353" height="353" viewBox="0 0 353 353" fill="none" xmlns="http://www.w3.org/2000/svg">
<path d="M336.15 91.5806C331.337 30.8677 263.177 37.0694 263.177 37.0694C234.412 -13.6621 189.468 23.0836 189.468 23.0836C154.938 -26.6356 111.652 19.439 111.652 19.439C37.0063 11.3849 39.9 72.4278 39.9 72.4278C38.1458 91.8355 50.418 151.866 50.418 151.866C39.3453 117.265 15.3331 145.987 15.3331 145.987C-14.2043 191.566 8.0237 216.516 8.0237 216.516C47.9815 263.355 133.13 319.576 133.13 319.576C163.964 337.244 150.92 353 150.92 353L337.41 322.179L341.69 286.798C370.043 201.038 336.15 91.5806 336.15 91.5806Z" fill="#3B4262"/>
</svg>
