<svg  viewBox="0 0 380 431" fill="none" xmlns="http://www.w3.org/2000/svg">
<path d="M102.613 192.722L147.778 129.145C129.004 126.009 94.5293 125.314 66.2975 153.586C21.7861 198.154 3.75623 294.424 0 317.731L113.123 431C133.489 429.247 223.653 417.197 310.543 330.213C311.459 328.332 332.629 312.677 315.321 295.353C307.057 287.08 293.392 287.238 284.955 295.685C280.658 299.992 273.979 300.045 269.772 295.836C265.566 291.628 265.626 284.934 269.923 280.635L300.626 249.893C316.222 234.276 301.52 207.923 279.742 214.255L254.612 235.795C250.022 239.799 243.193 239.111 239.422 234.737C235.523 230.226 236.357 223.381 240.797 219.528C328.595 142.404 315.771 151.689 372.265 98.6817C393.368 81.0855 366.818 49.9729 346.024 67.7807L209.372 190.818C205.398 194.203 199.306 194.271 195.399 190.667C190.884 186.761 190.779 181.132 193.731 176.69L289.042 28.3347C302.97 9.44652 275.557 -11.5344 260.878 7.50482L119.959 204.848C116.563 209.759 109.712 210.893 105.047 207.455C103.909 206.661 102.941 205.646 102.2 204.47C101.459 203.293 100.961 201.979 100.734 200.605C100.508 199.231 100.558 197.825 100.882 196.471C101.206 195.117 101.797 193.842 102.62 192.722H102.613Z" fill="#3B4262"/>
</svg>
