<svg width="602" height="537" viewBox="0 0 602 537" fill="none" xmlns="http://www.w3.org/2000/svg">
    <g opacity="0.2">
        <mask id="mask0_4_14" style="mask-type:luminance" maskUnits="userSpaceOnUse" x="111" y="122" width="360"
            height="318">
            <path d="M470.4 122.48H111.72V439.92H470.4V122.48Z" fill="white" />
        </mask>
        <g mask="url(#mask0_4_14)">
            <path d="M291.07 422.84L456.02 130.87H126.11L291.07 422.84Z" stroke="black" stroke-width="25" />
        </g>
    </g>
    <path
        d="M300.03 283.76C369.62 283.76 426.04 340.17 426.04 409.77C426.04 479.37 369.63 535.78 300.03 535.78C230.43 535.78 174.02 479.37 174.02 409.77C174.02 340.17 230.44 283.76 300.03 283.76Z"
        fill="#DC3A57" />
    <path
        d="M299.85 319.28C349.93 319.28 390.53 359.88 390.53 409.96C390.53 460.04 349.93 500.64 299.85 500.64C249.77 500.64 209.17 460.04 209.17 409.96C209.17 359.88 249.77 319.28 299.85 319.28Z"
        fill="#E3E3E3" />
    <path fill-rule="evenodd" clip-rule="evenodd"
        d="M299.85 319.28C249.77 319.28 209.17 359.88 209.17 409.96C209.17 411.4 209.2 412.83 209.27 414.26C211.51 366.18 251.21 327.88 299.85 327.88C348.49 327.88 388.18 366.17 390.43 414.26C390.5 412.84 390.53 411.4 390.53 409.96C390.53 359.88 349.93 319.28 299.85 319.28Z"
        fill="#C1C1C1" />
    <path fill-rule="evenodd" clip-rule="evenodd"
        d="M174.09 406.77C174.05 408.07 174.03 409.38 174.03 410.7C174.03 480.29 230.44 536.71 300.04 536.71C369.63 536.71 426.05 480.3 426.05 410.7C426.05 409.39 426.03 408.08 425.99 406.77C423.92 474.54 368.32 528.85 300.04 528.85C231.76 528.85 176.16 474.55 174.09 406.77Z"
        fill="#AF314C" />
    <path
        d="M126.83 1.12C196.42 1.12 252.84 57.53 252.84 127.13C252.84 196.73 196.43 253.14 126.83 253.14C57.23 253.14 0.820007 196.71 0.820007 127.12C0.820007 57.53 57.24 1.12 126.83 1.12Z"
        fill="#526CF4" />
    <path
        d="M126.65 36.64C176.73 36.64 217.33 77.24 217.33 127.32C217.33 177.4 176.73 218 126.65 218C76.57 218 35.97 177.4 35.97 127.32C35.97 77.24 76.57 36.64 126.65 36.64Z"
        fill="#E3E3E3" />
    <path fill-rule="evenodd" clip-rule="evenodd"
        d="M126.65 36.64C76.57 36.64 35.97 77.24 35.97 127.32C35.97 128.76 36 130.19 36.07 131.62C38.31 83.54 78.01 45.24 126.65 45.24C175.29 45.24 214.98 83.53 217.23 131.62C217.3 130.2 217.33 128.76 217.33 127.32C217.32 77.24 176.73 36.64 126.65 36.64Z"
        fill="#C1C1C1" />
    <path fill-rule="evenodd" clip-rule="evenodd"
        d="M0.880008 124.13C0.840008 125.43 0.820007 126.74 0.820007 128.06C0.820007 197.65 57.23 254.07 126.83 254.07C196.42 254.07 252.84 197.66 252.84 128.06C252.84 126.75 252.82 125.44 252.78 124.13C250.71 191.9 195.11 246.21 126.83 246.21C58.55 246.21 2.96001 191.91 0.880008 124.13Z"
        fill="#2846C1" />
    <path
        d="M475.2 0.380005C544.79 0.380005 601.21 56.79 601.21 126.39C601.21 195.99 544.79 252.39 475.2 252.39C405.61 252.39 349.19 195.98 349.19 126.38C349.19 56.78 405.61 0.380005 475.2 0.380005Z"
        fill="#E7A51A" />
    <path
        d="M475.02 35.9C525.1 35.9 565.7 76.5 565.7 126.58C565.7 176.66 525.1 217.26 475.02 217.26C424.94 217.26 384.34 176.66 384.34 126.58C384.34 76.5 424.94 35.9 475.02 35.9Z"
        fill="#E3E3E3" />
    <path fill-rule="evenodd" clip-rule="evenodd"
        d="M475.02 35.9C424.94 35.9 384.34 76.5 384.34 126.58C384.34 128.02 384.37 129.45 384.44 130.88C386.68 82.8 426.38 44.5 475.02 44.5C523.66 44.5 563.35 82.79 565.6 130.88C565.67 129.46 565.7 128.02 565.7 126.58C565.7 76.49 525.1 35.9 475.02 35.9Z"
        fill="#C1C1C1" />
    <path fill-rule="evenodd" clip-rule="evenodd"
        d="M349.26 123.39C349.22 124.69 349.2 126 349.2 127.32C349.2 196.91 405.61 253.33 475.21 253.33C544.8 253.33 601.22 196.92 601.22 127.32C601.22 126.01 601.2 124.7 601.16 123.39C599.09 191.16 543.49 245.47 475.21 245.47C406.93 245.47 351.33 191.16 349.26 123.39Z"
        fill="#CA6918" />
    <path
        d="M167.866 124.743L166.334 123.225C162.673 119.597 156.69 118.81 152.222 121.353L142.678 126.755L144.667 83.4843C144.667 79.8569 141.688 76.9042 138.022 76.9042C137.231 76.9042 136.469 77.0437 135.763 77.2962L136 74.974C136 71.306 132.974 68.3214 129.258 68.3214C125.822 68.3214 122.941 70.8733 122.577 74.1475L116.453 110.792C116.373 111.29 115.501 111.239 115.409 110.924L108.175 81.547C107.781 80.2095 106.963 79.0347 105.843 78.1979C104.722 77.3612 103.36 76.9073 101.959 76.9042C99.9742 76.9042 98.1299 77.7889 96.8944 79.3324C96.2874 80.0864 95.8615 80.9684 95.6493 81.9111C95.437 82.8537 95.4439 83.8321 95.6695 84.7717L97.0754 90.6878C96.2735 90.6257 95.4672 90.7267 94.7057 90.9845C93.3243 91.4369 92.1501 92.3639 91.3934 93.5995C90.6368 94.8351 90.3473 96.2984 90.5767 97.7271L94.8335 121.967C94.8335 131.53 96.5252 138.608 97.947 142.859C98.7589 145.304 99.1706 147.862 99.1665 150.437C99.1665 152.704 98.8488 154.961 98.2186 157.14L94.9169 168.588C94.7323 169.234 94.8636 169.93 95.2684 170.468C95.6802 171.005 96.3192 171.321 96.9991 171.321H135.999C136.341 171.322 136.679 171.242 136.985 171.088C137.29 170.933 137.554 170.709 137.755 170.433C137.956 170.157 138.089 169.838 138.141 169.501C138.194 169.164 138.165 168.819 138.058 168.496C138.035 168.441 136.224 162.899 137.939 155.362C140.113 153.614 147.727 147.482 150.461 145.01C154.98 140.922 167.362 128.289 167.887 127.753C168.284 127.349 168.504 126.807 168.5 126.243C168.496 125.679 168.268 125.141 167.866 124.743Z"
        fill="#3B4262" />
    <path
        d="M512.164 93.033C511.506 92.7723 510.8 92.658 510.095 92.6977C509.137 92.7654 508.366 93.1566 507.908 93.7982C505.213 97.6044 503.004 104.792 501.224 110.569C500.407 113.239 499.309 116.813 498.516 118.509C497.687 113.757 498.623 96.3464 498.986 89.6416L498.991 89.5333C499.243 84.8755 499.277 84.0577 499.223 83.6988C498.823 81.1439 497.807 79.466 496.201 78.716C494.578 77.954 492.472 78.2927 490.201 79.6692C489.063 80.3634 488.747 82.7439 487.772 93.5358L487.768 93.5832C487.231 99.5125 485.991 113.166 484.467 115.441C482.749 112.258 480.384 94.1843 479.362 86.3604C478.648 80.8814 478.232 77.7356 477.951 76.7858C477.363 74.7947 474.877 73.1016 472.416 73.0068C470.367 72.9052 468.687 73.9549 467.884 75.7801C466.382 77.4647 466.913 83.0469 468.573 96.2702C469.362 102.565 470.992 115.563 469.967 117.023C467.919 116.798 464.407 108.655 459.527 92.8129C458.156 88.3769 457.733 87.0427 457.313 86.4586C456.483 84.4235 453.664 82.8539 451.138 83.0317C450.925 83.0466 450.714 83.0743 450.505 83.1147C449.183 83.3788 446.164 84.6063 446.809 90.2698C448.59 98.1208 450.527 103.884 452.405 109.48L452.443 109.592C453.567 112.944 454.63 116.11 455.618 119.623C457.945 127.92 457.039 133.067 457.029 133.126C456.952 133.654 456.789 133.978 456.545 134.091C456.442 134.136 456.331 134.162 456.218 134.167C455.479 134.218 454.373 133.727 453.804 133.405C452.5 130.896 446.016 118.939 440.14 117.28L439.929 117.217L439.715 117.238C437.56 117.443 435.976 118.264 435.007 119.678C433.471 121.912 434.108 124.76 434.261 125.333L434.348 125.536C434.395 125.622 439.109 134.281 439.838 138.309C440.466 141.763 443.72 145.504 446.337 148.511L446.445 148.635C447.298 149.617 448.034 150.469 448.615 151.256C456.206 159.236 468.21 165.947 468.307 166.003C469.806 167.115 470.637 168.192 470.726 169.118C470.767 169.468 470.671 169.821 470.458 170.1L470.197 170.375L471.857 172L503.527 169.758L504.877 163.521C509.053 145.909 508.181 130.891 508.166 130.793C508.183 130.239 509.352 124.896 510.293 120.578L510.321 120.468C512.198 111.867 514.529 101.167 514.978 97.0981C515.173 95.3576 514.067 93.7593 512.164 93.033Z"
        fill="#3B4262" />
    <path
        d="M334.134 394.014C333.029 380.083 317.389 381.506 317.389 381.506C310.788 369.865 300.476 378.297 300.476 378.297C292.552 366.888 282.62 377.461 282.62 377.461C265.492 375.612 266.156 389.619 266.156 389.619C265.753 394.073 268.569 407.847 268.569 407.847C266.028 399.908 260.518 406.498 260.518 406.498C253.741 416.957 258.841 422.682 258.841 422.682C268.01 433.43 287.548 446.331 287.548 446.331C294.624 450.385 291.63 454 291.63 454L334.423 446.928L335.405 438.809C341.911 419.13 334.134 394.014 334.134 394.014Z"
        fill="#3B4262" />
</svg>