<svg width="602" height="537" fill="none" xmlns="http://www.w3.org/2000/svg" xmlns:xlink="http://www.w3.org/1999/xlink">
    <!-- <g opacity=".2">
        <mask id="prefix__a" style="mask-type:luminance" maskUnits="userSpaceOnUse" x="111" y="122" width="360"
            height="318">
            <path d="M470.4 122.48H111.72v317.44H470.4V122.48z" fill="#fff" />
        </mask>
        <g mask="url(#prefix__a)">
            <path d="M291.07 422.84l164.95-291.97H126.11l164.96 291.97z" stroke="#000" stroke-width="25" />
        </g>
    </g> -->
    <path
        d="M300.03 283.76c69.59 0 126.01 56.41 126.01 126.01 0 69.6-56.41 126.01-126.01 126.01-69.6 0-126.01-56.41-126.01-126.01 0-69.6 56.42-126.01 126.01-126.01z"
        fill="#DC3A57" />
    <path
        d="M299.85 319.28c50.08 0 90.68 40.6 90.68 90.68 0 50.08-40.6 90.68-90.68 90.68-50.08 0-90.68-40.6-90.68-90.68 0-50.08 40.6-90.68 90.68-90.68z"
        fill="#E3E3E3" />
    <path fill-rule="evenodd" clip-rule="evenodd"
        d="M299.85 319.28c-50.08 0-90.68 40.6-90.68 90.68 0 1.44.03 2.87.1 4.3 2.24-48.08 41.94-86.38 90.58-86.38s88.33 38.29 90.58 86.38c.07-1.42.1-2.86.1-4.3 0-50.08-40.6-90.68-90.68-90.68z"
        fill="#C1C1C1" />
    <path fill-rule="evenodd" clip-rule="evenodd"
        d="M174.09 406.77c-.04 1.3-.06 2.61-.06 3.93 0 69.59 56.41 126.01 126.01 126.01 69.59 0 126.01-56.41 126.01-126.01 0-1.31-.02-2.62-.06-3.93-2.07 67.77-57.67 122.08-125.95 122.08s-123.88-54.3-125.95-122.08z"
        fill="#AF314C" />
    <path
        d="M126.83 1.12c69.59 0 126.01 56.41 126.01 126.01 0 69.6-56.41 126.01-126.01 126.01C57.23 253.14.82 196.71.82 127.12s56.42-126 126.01-126z"
        fill="#526CF4" />
    <path
        d="M126.65 36.64c50.08 0 90.68 40.6 90.68 90.68 0 50.08-40.6 90.68-90.68 90.68-50.08 0-90.68-40.6-90.68-90.68 0-50.08 40.6-90.68 90.68-90.68z"
        fill="#E3E3E3" />
    <path
        d="M166.989 91.247a5.178 5.178 0 00-2.197-.356c-1.017.072-1.835.487-2.322 1.168-2.861 4.037-5.206 11.659-7.097 17.786-.867 2.832-2.033 6.623-2.875 8.422-.879-5.04.114-23.506.499-30.617l.006-.115c.267-4.94.303-5.807.246-6.188-.425-2.71-1.504-4.49-3.209-5.285-1.722-.808-3.959-.449-6.37 1.011-1.208.737-1.543 3.261-2.579 14.707l-.004.05c-.571 6.29-1.887 20.77-3.504 23.184-1.825-3.376-4.336-22.546-5.421-30.844-.758-5.81-1.2-9.147-1.498-10.155-.624-2.112-3.264-3.907-5.876-4.008-2.176-.108-3.96 1.006-4.812 2.942-1.595 1.786-1.031 7.707.731 21.731.838 6.677 2.568 20.463 1.48 22.011-2.174-.239-5.903-8.875-11.084-25.677-1.456-4.705-1.905-6.12-2.351-6.74-.881-2.158-3.874-3.823-6.556-3.634-.226.016-.45.045-.672.088-1.404.28-4.61 1.582-3.924 7.588 1.89 8.327 3.947 14.44 5.941 20.375l.041.118c1.193 3.556 2.322 6.914 3.371 10.64 2.47 8.799 1.508 14.258 1.498 14.321-.082.56-.255.903-.514 1.024a.993.993 0 01-.348.08c-.785.054-1.958-.467-2.563-.808-1.384-2.661-8.268-15.342-14.507-17.102l-.225-.067-.226.022c-2.288.217-3.97 1.088-5 2.588-1.63 2.37-.953 5.39-.791 5.997l.093.216c.05.091 5.054 9.275 5.828 13.547.667 3.663 4.122 7.632 6.9 10.821l.115.131c.906 1.041 1.687 1.945 2.304 2.78 8.06 8.463 20.805 15.581 20.908 15.641 1.591 1.179 2.474 2.321 2.568 3.304.044.371-.058.745-.285 1.041l-.276.291 1.762 1.724 33.624-2.378 1.434-6.615c4.434-18.679 3.508-34.607 3.492-34.712.018-.587 1.26-6.254 2.258-10.833l.031-.117c1.992-9.122 4.467-20.471 4.944-24.786.206-1.846-.967-3.542-2.988-4.312z"
        fill="#3B4262" />
    <path fill-rule="evenodd" clip-rule="evenodd"
        d="M126.65 36.64c-50.08 0-90.68 40.6-90.68 90.68 0 1.44.03 2.87.1 4.3 2.24-48.08 41.94-86.38 90.58-86.38s88.33 38.29 90.58 86.38c.07-1.42.1-2.86.1-4.3-.01-50.08-40.6-90.68-90.68-90.68z"
        fill="#C1C1C1" />
    <path fill-rule="evenodd" clip-rule="evenodd"
        d="M.88 124.13c-.04 1.3-.06 2.61-.06 3.93 0 69.59 56.41 126.01 126.01 126.01 69.59 0 126.01-56.41 126.01-126.01 0-1.31-.02-2.62-.06-3.93-2.07 67.77-57.67 122.08-125.95 122.08S2.96 191.91.88 124.13z"
        fill="#2846C1" />
    <path
        d="M475.2.38c69.59 0 126.01 56.41 126.01 126.01 0 69.6-56.42 126-126.01 126s-126.01-56.41-126.01-126.01c0-69.6 56.42-126 126.01-126z"
        fill="#E7A51A" />
    <path
        d="M475.02 35.9c50.08 0 90.68 40.6 90.68 90.68 0 50.08-40.6 90.68-90.68 90.68-50.08 0-90.68-40.6-90.68-90.68 0-50.08 40.6-90.68 90.68-90.68z"
        fill="#E3E3E3" />
    <path fill-rule="evenodd" clip-rule="evenodd"
        d="M475.02 35.9c-50.08 0-90.68 40.6-90.68 90.68 0 1.44.03 2.87.1 4.3 2.24-48.08 41.94-86.38 90.58-86.38s88.33 38.29 90.58 86.38c.07-1.42.1-2.86.1-4.3 0-50.09-40.6-90.68-90.68-90.68z"
        fill="#C1C1C1" />
    <path fill-rule="evenodd" clip-rule="evenodd"
        d="M349.26 123.39c-.04 1.3-.06 2.61-.06 3.93 0 69.59 56.41 126.01 126.01 126.01 69.59 0 126.01-56.41 126.01-126.01 0-1.31-.02-2.62-.06-3.93-2.07 67.77-57.67 122.08-125.95 122.08s-123.88-54.31-125.95-122.08z"
        fill="#CA6918" />
    <circle cx="127.5" cy="127.5" r="80.5" fill="url(#prefix__pattern1)" />
    <circle cx="299.5" cy="413.5" r="80.5" fill="url(#prefix__pattern3)" />
    <circle cx="474.5" cy="131.5" r="80.5" fill="url(#prefix__pattern2)" />
    <defs>
        <pattern id="prefix__pattern0" patternContentUnits="objectBoundingBox" width="1" height="1">
            <use xlink:href="#prefix__image1" transform="translate(0 -.389) scale(.00044)" />
        </pattern>
        <pattern id="prefix__pattern1" patternContentUnits="objectBoundingBox" width="1" height="1">
            <use xlink:href="#prefix__image2" transform="translate(0 -.389) scale(.00044)" />
        </pattern>
        <pattern id="prefix__pattern2" patternContentUnits="objectBoundingBox" width="1" height="1">
            <use xlink:href="#prefix__image3" transform="translate(0 -.389) scale(.00044)" />
        </pattern>
        <image id="prefix__image1" href="../images/icon-rock.svg" width="71" height="71" />
        <image id="prefix__image2" href="../images/icon-paper.svg" width="71" height="71" />
        <image id="prefix__image3" href="../images/icon-rock.svg" width="71" height="71" />
    </defs>
</svg>