<svg width="332" height="333" viewBox="0 0 332 333" fill="none" xmlns="http://www.w3.org/2000/svg">
<path d="M166 0C257.675 0 332 74.315 332 166.007C332 257.698 257.675 332 166 332C74.3252 332 0 257.685 0 165.993C0 74.3018 74.3252 0 166 0Z" fill="#E7A51A"/>
<path d="M165.5 46C231.496 46 285 99.7274 285 166C285 232.273 231.496 286 165.5 286C99.5035 286 46 232.273 46 166C46 99.7274 99.5035 46 165.5 46Z" fill="#E3E3E3"/>
<path fill-rule="evenodd" clip-rule="evenodd" d="M165.5 46C99.5035 46 46 99.8598 46 166.296C46 168.206 46.0395 170.103 46.1318 172C49.0837 108.217 101.401 57.4087 165.5 57.4087C229.599 57.4087 281.903 108.204 284.868 172C284.96 170.116 285 168.206 285 166.296C285 99.8465 231.496 46 165.5 46Z" fill="#C1C1C1"/>
<path fill-rule="evenodd" clip-rule="evenodd" d="M0.0790381 162C0.0263439 163.711 0 165.435 0 167.172C0 258.752 74.312 333 166 333C257.675 333 332 258.765 332 167.172C332 165.448 331.974 163.724 331.921 162C329.194 251.185 255.949 322.656 166 322.656C76.0509 322.656 2.80596 251.185 0.0790381 162Z" fill="#CA6918"/>
</svg>
